<mxfile host="app.diagrams.net" modified="2022-12-01T14:45:47.925Z" agent="5.0 (Macintosh; Intel Mac OS X 10_15_7) AppleWebKit/537.36 (KHTML, like Gecko) Chrome/108.0.0.0 Safari/537.36" version="20.6.0" etag="ctAhIapKHOn1LUnpcZ2b" type="github">
  <diagram id="zOz9JNRdx4cPPUi2tagx" name="Page-1">
    <mxGraphModel dx="1751" dy="1676" grid="0" gridSize="10" guides="1" tooltips="1" connect="1" arrows="1" fold="1" page="0" pageScale="1" pageWidth="850" pageHeight="1100" background="#F1FAEE" math="0" shadow="0">
      <root>
        <mxCell id="0" />
        <mxCell id="1" parent="0" />
        <mxCell id="ahDNmzRv6jfMNTEkgj-N-4" value="SAGE (ZWL)" style="rounded=1;whiteSpace=wrap;html=1;fillColor=#A8DADC;strokeColor=#457B9D;fontColor=#1D3557;" vertex="1" parent="1">
          <mxGeometry x="-59" y="-409" width="120" height="299" as="geometry" />
        </mxCell>
        <mxCell id="ahDNmzRv6jfMNTEkgj-N-13" style="edgeStyle=orthogonalEdgeStyle;rounded=0;orthogonalLoop=1;jettySize=auto;html=1;exitX=0;exitY=0.5;exitDx=0;exitDy=0;entryX=1;entryY=0.25;entryDx=0;entryDy=0;labelBackgroundColor=#F1FAEE;strokeColor=#457B9D;fontColor=#1D3557;" edge="1" parent="1" source="ahDNmzRv6jfMNTEkgj-N-5" target="ahDNmzRv6jfMNTEkgj-N-7">
          <mxGeometry relative="1" as="geometry">
            <Array as="points">
              <mxPoint x="826" y="-259" />
            </Array>
          </mxGeometry>
        </mxCell>
        <mxCell id="ahDNmzRv6jfMNTEkgj-N-5" value="SAGE (USD)" style="rounded=1;whiteSpace=wrap;html=1;fillColor=#A8DADC;strokeColor=#457B9D;fontColor=#1D3557;" vertex="1" parent="1">
          <mxGeometry x="776" y="-412" width="120" height="299" as="geometry" />
        </mxCell>
        <mxCell id="ahDNmzRv6jfMNTEkgj-N-40" style="edgeStyle=orthogonalEdgeStyle;rounded=0;orthogonalLoop=1;jettySize=auto;html=1;exitX=0;exitY=0.25;exitDx=0;exitDy=0;entryX=1;entryY=0.5;entryDx=0;entryDy=0;strokeColor=#82b366;fontSize=42;fontColor=#1D3557;fillColor=#d5e8d4;dashed=1;strokeWidth=3;" edge="1" parent="1" source="ahDNmzRv6jfMNTEkgj-N-7" target="ahDNmzRv6jfMNTEkgj-N-4">
          <mxGeometry relative="1" as="geometry" />
        </mxCell>
        <mxCell id="ahDNmzRv6jfMNTEkgj-N-44" style="edgeStyle=orthogonalEdgeStyle;rounded=0;orthogonalLoop=1;jettySize=auto;html=1;exitX=1;exitY=0.75;exitDx=0;exitDy=0;entryX=0;entryY=0.75;entryDx=0;entryDy=0;dashed=1;strokeColor=#82b366;strokeWidth=3;fontSize=17;fontColor=#1D5732;fillColor=#d5e8d4;" edge="1" parent="1" source="ahDNmzRv6jfMNTEkgj-N-7" target="ahDNmzRv6jfMNTEkgj-N-5">
          <mxGeometry relative="1" as="geometry">
            <Array as="points">
              <mxPoint x="661" y="-185" />
              <mxPoint x="661" y="-188" />
            </Array>
          </mxGeometry>
        </mxCell>
        <mxCell id="ahDNmzRv6jfMNTEkgj-N-7" value="Intergration&lt;br&gt;Module&lt;br&gt;" style="shape=process;whiteSpace=wrap;html=1;backgroundOutline=1;rounded=1;fillColor=#A8DADC;strokeColor=#457B9D;fontColor=#1D3557;" vertex="1" parent="1">
          <mxGeometry x="314" y="-295" width="181.5" height="146" as="geometry" />
        </mxCell>
        <mxCell id="ahDNmzRv6jfMNTEkgj-N-8" value="Employee-Sync&amp;nbsp;&lt;br&gt;Management" style="whiteSpace=wrap;html=1;rounded=1;strokeColor=#457B9D;fillColor=#A8DADC;fontColor=#1D3557;" vertex="1" parent="1">
          <mxGeometry x="266.25" y="-82" width="277" height="60" as="geometry" />
        </mxCell>
        <mxCell id="ahDNmzRv6jfMNTEkgj-N-9" value="Payroll Sync Management" style="whiteSpace=wrap;html=1;rounded=1;strokeColor=#457B9D;fillColor=#A8DADC;fontColor=#1D3557;" vertex="1" parent="1">
          <mxGeometry x="266.25" y="-489" width="277" height="60" as="geometry" />
        </mxCell>
        <mxCell id="ahDNmzRv6jfMNTEkgj-N-14" value="SAGE (USD)" style="swimlane;fontStyle=0;childLayout=stackLayout;horizontal=1;startSize=30;horizontalStack=0;resizeParent=1;resizeParentMax=0;resizeLast=0;collapsible=1;marginBottom=0;whiteSpace=wrap;html=1;strokeColor=#457B9D;fontColor=#1D3557;fillColor=#A8DADC;rounded=1;" vertex="1" parent="1">
          <mxGeometry x="-192" y="180" width="588" height="81" as="geometry" />
        </mxCell>
        <mxCell id="ahDNmzRv6jfMNTEkgj-N-15" value="* &lt;b&gt;Data Source Node&lt;/b&gt;&lt;br&gt;- SAGE Implementation USD Mirror&amp;nbsp;" style="text;strokeColor=none;fillColor=none;align=left;verticalAlign=middle;spacingLeft=4;spacingRight=4;overflow=hidden;points=[[0,0.5],[1,0.5]];portConstraint=eastwest;rotatable=0;whiteSpace=wrap;html=1;fontColor=#1D3557;" vertex="1" parent="ahDNmzRv6jfMNTEkgj-N-14">
          <mxGeometry y="30" width="588" height="51" as="geometry" />
        </mxCell>
        <mxCell id="ahDNmzRv6jfMNTEkgj-N-18" value="SAGE (ZWL)" style="swimlane;fontStyle=0;childLayout=stackLayout;horizontal=1;startSize=30;horizontalStack=0;resizeParent=1;resizeParentMax=0;resizeLast=0;collapsible=1;marginBottom=0;whiteSpace=wrap;html=1;strokeColor=#457B9D;fontColor=#1D3557;fillColor=#A8DADC;rounded=1;" vertex="1" parent="1">
          <mxGeometry x="-192" y="45" width="588" height="81" as="geometry" />
        </mxCell>
        <mxCell id="ahDNmzRv6jfMNTEkgj-N-34" value="&amp;nbsp;* &lt;b&gt;Data Source Node&lt;/b&gt;&lt;br&gt;- SAGE Implementation ZWL Mirror&amp;nbsp;" style="text;strokeColor=none;fillColor=none;align=left;verticalAlign=middle;spacingLeft=4;spacingRight=4;overflow=hidden;points=[[0,0.5],[1,0.5]];portConstraint=eastwest;rotatable=0;whiteSpace=wrap;html=1;fontColor=#1D3557;" vertex="1" parent="ahDNmzRv6jfMNTEkgj-N-18">
          <mxGeometry y="30" width="588" height="51" as="geometry" />
        </mxCell>
        <mxCell id="ahDNmzRv6jfMNTEkgj-N-26" value="Payroll Data-Sync Manager&amp;nbsp;" style="swimlane;fontStyle=0;childLayout=stackLayout;horizontal=1;startSize=30;horizontalStack=0;resizeParent=1;resizeParentMax=0;resizeLast=0;collapsible=1;marginBottom=0;whiteSpace=wrap;html=1;strokeColor=#457B9D;fontColor=#1D3557;fillColor=#A8DADC;rounded=1;" vertex="1" parent="1">
          <mxGeometry x="523" y="45" width="588" height="106" as="geometry" />
        </mxCell>
        <mxCell id="ahDNmzRv6jfMNTEkgj-N-28" value="* &lt;b&gt;Integration Module&lt;/b&gt;&lt;br&gt;- Responsible for syncing payroll data between the sage environments&lt;br&gt;- Applying custom Mathematical Operations on specified fields&amp;nbsp;" style="text;strokeColor=none;fillColor=none;align=left;verticalAlign=middle;spacingLeft=4;spacingRight=4;overflow=hidden;points=[[0,0.5],[1,0.5]];portConstraint=eastwest;rotatable=0;whiteSpace=wrap;html=1;fontColor=#1D3557;" vertex="1" parent="ahDNmzRv6jfMNTEkgj-N-26">
          <mxGeometry y="30" width="588" height="76" as="geometry" />
        </mxCell>
        <mxCell id="ahDNmzRv6jfMNTEkgj-N-31" value="Employee Data Manager" style="swimlane;fontStyle=0;childLayout=stackLayout;horizontal=1;startSize=30;horizontalStack=0;resizeParent=1;resizeParentMax=0;resizeLast=0;collapsible=1;marginBottom=0;whiteSpace=wrap;html=1;strokeColor=#457B9D;fontColor=#1D3557;fillColor=#A8DADC;rounded=1;" vertex="1" parent="1">
          <mxGeometry x="523" y="184" width="594" height="154" as="geometry" />
        </mxCell>
        <mxCell id="ahDNmzRv6jfMNTEkgj-N-32" value="* &lt;b&gt;Integration Module&lt;/b&gt;&lt;br&gt;- Responsible for syncing data between Data Source Nodes&lt;br&gt;&lt;ul&gt;&lt;li&gt;New Employees&amp;nbsp;&lt;/li&gt;&lt;li&gt;Terminated Employees&amp;nbsp;&lt;/li&gt;&lt;li&gt;Data Points Updates&lt;/li&gt;&lt;/ul&gt;" style="text;strokeColor=none;fillColor=none;align=left;verticalAlign=middle;spacingLeft=4;spacingRight=4;overflow=hidden;points=[[0,0.5],[1,0.5]];portConstraint=eastwest;rotatable=0;whiteSpace=wrap;html=1;fontColor=#1D3557;" vertex="1" parent="ahDNmzRv6jfMNTEkgj-N-31">
          <mxGeometry y="30" width="594" height="124" as="geometry" />
        </mxCell>
        <mxCell id="ahDNmzRv6jfMNTEkgj-N-35" value="&lt;h1&gt;&lt;font style=&quot;font-size: 42px;&quot;&gt;SAGE TO SAGE INTERGRATION&lt;/font&gt;&lt;/h1&gt;" style="text;html=1;strokeColor=none;fillColor=none;align=center;verticalAlign=middle;whiteSpace=wrap;rounded=0;fontColor=#1D3557;" vertex="1" parent="1">
          <mxGeometry x="61" y="-545" width="724" height="30" as="geometry" />
        </mxCell>
        <mxCell id="ahDNmzRv6jfMNTEkgj-N-36" value="" style="endArrow=classic;startArrow=classic;html=1;rounded=0;strokeColor=#457B9D;fontSize=42;fontColor=#1D3557;fillColor=#A8DADC;entryX=0.5;entryY=1;entryDx=0;entryDy=0;exitX=0.5;exitY=0;exitDx=0;exitDy=0;" edge="1" parent="1" source="ahDNmzRv6jfMNTEkgj-N-7" target="ahDNmzRv6jfMNTEkgj-N-9">
          <mxGeometry width="50" height="50" relative="1" as="geometry">
            <mxPoint x="420" y="-320" as="sourcePoint" />
            <mxPoint x="470" y="-370" as="targetPoint" />
          </mxGeometry>
        </mxCell>
        <mxCell id="ahDNmzRv6jfMNTEkgj-N-37" value="" style="endArrow=classic;startArrow=classic;html=1;rounded=0;strokeColor=#457B9D;fontSize=42;fontColor=#1D3557;fillColor=#A8DADC;entryX=0.5;entryY=1;entryDx=0;entryDy=0;" edge="1" parent="1" source="ahDNmzRv6jfMNTEkgj-N-8" target="ahDNmzRv6jfMNTEkgj-N-7">
          <mxGeometry width="50" height="50" relative="1" as="geometry">
            <mxPoint x="438.79" y="-110" as="sourcePoint" />
            <mxPoint x="439" y="-203" as="targetPoint" />
          </mxGeometry>
        </mxCell>
        <mxCell id="ahDNmzRv6jfMNTEkgj-N-39" value="" style="endArrow=classic;html=1;rounded=0;strokeColor=#457B9D;fontSize=42;fontColor=#1D3557;fillColor=#A8DADC;entryX=0;entryY=0.75;entryDx=0;entryDy=0;exitX=1;exitY=0.75;exitDx=0;exitDy=0;" edge="1" parent="1" source="ahDNmzRv6jfMNTEkgj-N-4" target="ahDNmzRv6jfMNTEkgj-N-7">
          <mxGeometry width="50" height="50" relative="1" as="geometry">
            <mxPoint x="430" y="-150" as="sourcePoint" />
            <mxPoint x="480" y="-200" as="targetPoint" />
          </mxGeometry>
        </mxCell>
        <mxCell id="ahDNmzRv6jfMNTEkgj-N-41" value="Updates" style="text;html=1;align=center;verticalAlign=middle;resizable=0;points=[];autosize=1;strokeColor=none;fillColor=none;fontSize=17;fontColor=#1D3557;" vertex="1" parent="1">
          <mxGeometry x="121" y="-286" width="81" height="32" as="geometry" />
        </mxCell>
        <mxCell id="ahDNmzRv6jfMNTEkgj-N-42" value="Specified Data" style="text;html=1;align=center;verticalAlign=middle;resizable=0;points=[];autosize=1;strokeColor=none;fillColor=none;fontSize=17;fontColor=#245755;" vertex="1" parent="1">
          <mxGeometry x="102" y="-216" width="129" height="32" as="geometry" />
        </mxCell>
        <mxCell id="ahDNmzRv6jfMNTEkgj-N-45" value="Updates" style="text;html=1;align=center;verticalAlign=middle;resizable=0;points=[];autosize=1;strokeColor=none;fillColor=none;fontSize=17;fontColor=#245755;" vertex="1" parent="1">
          <mxGeometry x="605" y="-217" width="81" height="32" as="geometry" />
        </mxCell>
        <mxCell id="ahDNmzRv6jfMNTEkgj-N-46" value="Specified Data" style="text;html=1;align=center;verticalAlign=middle;resizable=0;points=[];autosize=1;strokeColor=none;fillColor=none;fontSize=17;fontColor=#245755;" vertex="1" parent="1">
          <mxGeometry x="576" y="-294" width="129" height="32" as="geometry" />
        </mxCell>
      </root>
    </mxGraphModel>
  </diagram>
</mxfile>
